<svg xmlns="http://www.w3.org/2000/svg" xmlns:xlink="http://www.w3.org/1999/xlink" width="600" zoomAndPan="magnify" viewBox="0 0 450 99.749996" height="133" preserveAspectRatio="xMidYMid meet" version="1.0"><defs><g/><clipPath id="de1de701b0"><path d="M 20.171875 70.664062 L 66.617188 70.664062 L 66.617188 87.550781 L 20.171875 87.550781 Z M 20.171875 70.664062 " clip-rule="nonzero"/></clipPath><clipPath id="30a8b57a9d"><path d="M 59.078125 70.664062 C 63.214844 70.664062 66.566406 74.441406 66.566406 79.105469 C 66.566406 83.769531 63.214844 87.550781 59.078125 87.550781 L 27.664062 87.550781 C 23.527344 87.550781 20.171875 83.769531 20.171875 79.105469 C 20.171875 74.441406 23.527344 70.664062 27.664062 70.664062 Z M 59.078125 70.664062 " clip-rule="nonzero"/></clipPath><clipPath id="ed27449a21"><path d="M 0.171875 0.664062 L 46.617188 0.664062 L 46.617188 17.550781 L 0.171875 17.550781 Z M 0.171875 0.664062 " clip-rule="nonzero"/></clipPath><clipPath id="dfd74e236d"><path d="M 39.078125 0.664062 C 43.214844 0.664062 46.566406 4.441406 46.566406 9.105469 C 46.566406 13.769531 43.214844 17.550781 39.078125 17.550781 L 7.664062 17.550781 C 3.527344 17.550781 0.171875 13.769531 0.171875 9.105469 C 0.171875 4.441406 3.527344 0.664062 7.664062 0.664062 Z M 39.078125 0.664062 " clip-rule="nonzero"/></clipPath><clipPath id="55b3354305"><rect x="0" width="47" y="0" height="18"/></clipPath><clipPath id="0b96b4310b"><path d="M 20.171875 8.183594 L 66.617188 8.183594 L 66.617188 25.070312 L 20.171875 25.070312 Z M 20.171875 8.183594 " clip-rule="nonzero"/></clipPath><clipPath id="d52d40210b"><path d="M 59.078125 8.183594 C 63.214844 8.183594 66.566406 11.964844 66.566406 16.625 C 66.566406 21.289062 63.214844 25.070312 59.078125 25.070312 L 27.664062 25.070312 C 23.527344 25.070312 20.171875 21.289062 20.171875 16.625 C 20.171875 11.964844 23.527344 8.183594 27.664062 8.183594 Z M 59.078125 8.183594 " clip-rule="nonzero"/></clipPath><clipPath id="317f80f4a5"><path d="M 0.171875 0.183594 L 46.617188 0.183594 L 46.617188 17.070312 L 0.171875 17.070312 Z M 0.171875 0.183594 " clip-rule="nonzero"/></clipPath><clipPath id="cda3faa8fe"><path d="M 39.078125 0.183594 C 43.214844 0.183594 46.566406 3.964844 46.566406 8.625 C 46.566406 13.289062 43.214844 17.070312 39.078125 17.070312 L 7.664062 17.070312 C 3.527344 17.070312 0.171875 13.289062 0.171875 8.625 C 0.171875 3.964844 3.527344 0.183594 7.664062 0.183594 Z M 39.078125 0.183594 " clip-rule="nonzero"/></clipPath><clipPath id="8c4bfd6fb5"><rect x="0" width="47" y="0" height="18"/></clipPath><clipPath id="2332540cf8"><path d="M 0.425781 39.421875 L 62.503906 39.421875 L 62.503906 56.3125 L 0.425781 56.3125 Z M 0.425781 39.421875 " clip-rule="nonzero"/></clipPath><clipPath id="e5220cc0f0"><path d="M 54.980469 39.421875 C 59.117188 39.421875 62.46875 43.203125 62.46875 47.867188 C 62.46875 52.53125 59.117188 56.3125 54.980469 56.3125 L 7.917969 56.3125 C 3.78125 56.3125 0.425781 52.53125 0.425781 47.867188 C 0.425781 43.203125 3.78125 39.421875 7.917969 39.421875 Z M 54.980469 39.421875 " clip-rule="nonzero"/></clipPath><clipPath id="48ec895e56"><path d="M 0.425781 0.421875 L 62.503906 0.421875 L 62.503906 17.3125 L 0.425781 17.3125 Z M 0.425781 0.421875 " clip-rule="nonzero"/></clipPath><clipPath id="faa8df5818"><path d="M 54.980469 0.421875 C 59.117188 0.421875 62.46875 4.203125 62.46875 8.867188 C 62.46875 13.53125 59.117188 17.3125 54.980469 17.3125 L 7.917969 17.3125 C 3.78125 17.3125 0.425781 13.53125 0.425781 8.867188 C 0.425781 4.203125 3.78125 0.421875 7.917969 0.421875 Z M 54.980469 0.421875 " clip-rule="nonzero"/></clipPath><clipPath id="766ff682fa"><rect x="0" width="63" y="0" height="18"/></clipPath><clipPath id="e226696007"><path d="M 75.84375 8.183594 L 123.726562 8.183594 L 123.726562 87.546875 L 75.84375 87.546875 Z M 75.84375 8.183594 " clip-rule="nonzero"/></clipPath><clipPath id="e20d1d9fb4"><path d="M 0.84375 0.183594 L 48.460938 0.183594 L 48.460938 79.546875 L 0.84375 79.546875 Z M 0.84375 0.183594 " clip-rule="nonzero"/></clipPath><clipPath id="d584657450"><rect x="0" width="49" y="0" height="80"/></clipPath><clipPath id="6bf220ad8e"><rect x="0" width="132" y="0" height="96"/></clipPath></defs><g transform="matrix(1, 0, 0, 1, 6, 2)"><g clip-path="url(#6bf220ad8e)"><g clip-path="url(#de1de701b0)"><g clip-path="url(#30a8b57a9d)"><g transform="matrix(1, 0, 0, 1, 20, 70)"><g clip-path="url(#55b3354305)"><g clip-path="url(#ed27449a21)"><g clip-path="url(#dfd74e236d)"><path fill="#ffffff" d="M 0.171875 0.664062 L 46.550781 0.664062 L 46.550781 17.550781 L 0.171875 17.550781 Z M 0.171875 0.664062 " fill-opacity="1" fill-rule="nonzero"/></g></g></g></g></g></g><g clip-path="url(#0b96b4310b)"><g clip-path="url(#d52d40210b)"><g transform="matrix(1, 0, 0, 1, 20, 8)"><g clip-path="url(#8c4bfd6fb5)"><g clip-path="url(#317f80f4a5)"><g clip-path="url(#cda3faa8fe)"><path fill="#ffffff" d="M 0.171875 0.183594 L 46.550781 0.183594 L 46.550781 17.070312 L 0.171875 17.070312 Z M 0.171875 0.183594 " fill-opacity="1" fill-rule="nonzero"/></g></g></g></g></g></g><g clip-path="url(#2332540cf8)"><g clip-path="url(#e5220cc0f0)"><g transform="matrix(1, 0, 0, 1, 0, 39)"><g clip-path="url(#766ff682fa)"><g clip-path="url(#48ec895e56)"><g clip-path="url(#faa8df5818)"><path fill="#ffffff" d="M 0.425781 0.421875 L 62.4375 0.421875 L 62.4375 17.3125 L 0.425781 17.3125 Z M 0.425781 0.421875 " fill-opacity="1" fill-rule="nonzero"/></g></g></g></g></g></g><g clip-path="url(#e226696007)"><g transform="matrix(1, 0, 0, 1, 75, 8)"><g clip-path="url(#d584657450)"><g clip-path="url(#e20d1d9fb4)"><path fill="#ffffff" d="M 3.144531 2.488281 C 2.773438 2.855469 2.441406 3.257812 2.148438 3.691406 C 1.859375 4.128906 1.609375 4.585938 1.410156 5.070312 C 1.207031 5.554688 1.054688 6.050781 0.953125 6.566406 C 0.851562 7.078125 0.800781 7.597656 0.800781 8.121094 C 0.800781 8.644531 0.851562 9.164062 0.953125 9.679688 C 1.054688 10.191406 1.207031 10.691406 1.410156 11.171875 C 1.609375 11.65625 1.859375 12.117188 2.148438 12.550781 C 2.441406 12.984375 2.773438 13.386719 3.144531 13.757812 L 29.335938 39.863281 L 3.144531 65.972656 C 2.773438 66.34375 2.441406 66.742188 2.148438 67.179688 C 1.859375 67.613281 1.609375 68.070312 1.410156 68.554688 C 1.207031 69.039062 1.054688 69.539062 0.953125 70.050781 C 0.851562 70.566406 0.800781 71.082031 0.800781 71.609375 C 0.800781 72.132812 0.851562 72.648438 0.953125 73.164062 C 1.054688 73.675781 1.207031 74.175781 1.410156 74.660156 C 1.609375 75.144531 1.859375 75.601562 2.148438 76.035156 C 2.441406 76.472656 2.773438 76.875 3.144531 77.242188 C 3.515625 77.613281 3.917969 77.945312 4.351562 78.238281 C 4.785156 78.53125 5.246094 78.777344 5.730469 78.980469 C 6.210938 79.179688 6.710938 79.332031 7.222656 79.433594 C 7.738281 79.539062 8.257812 79.589844 8.78125 79.589844 C 9.304688 79.589844 9.824219 79.539062 10.335938 79.433594 C 10.851562 79.332031 11.347656 79.179688 11.832031 78.980469 C 12.316406 78.777344 12.773438 78.53125 13.210938 78.238281 C 13.644531 77.945312 14.046875 77.613281 14.414062 77.242188 L 46.15625 45.5 C 46.53125 45.128906 46.863281 44.726562 47.152344 44.292969 C 47.445312 43.859375 47.695312 43.398438 47.894531 42.917969 C 48.097656 42.433594 48.25 41.933594 48.351562 41.421875 C 48.453125 40.90625 48.503906 40.386719 48.503906 39.863281 C 48.503906 39.339844 48.453125 38.820312 48.351562 38.308594 C 48.25 37.796875 48.097656 37.296875 47.894531 36.8125 C 47.695312 36.328125 47.445312 35.871094 47.152344 35.4375 C 46.863281 35 46.53125 34.597656 46.15625 34.230469 L 14.414062 2.488281 C 14.046875 2.117188 13.644531 1.785156 13.210938 1.492188 C 12.773438 1.199219 12.316406 0.953125 11.832031 0.75 C 11.347656 0.550781 10.851562 0.398438 10.335938 0.292969 C 9.824219 0.191406 9.304688 0.140625 8.78125 0.140625 C 8.257812 0.140625 7.738281 0.191406 7.222656 0.292969 C 6.710938 0.398438 6.210938 0.550781 5.730469 0.75 C 5.246094 0.953125 4.785156 1.199219 4.351562 1.492188 C 3.917969 1.785156 3.515625 2.117188 3.144531 2.488281 Z M 3.144531 2.488281 " fill-opacity="1" fill-rule="nonzero"/></g></g></g></g></g></g><g fill="#ffffff" fill-opacity="1"><g transform="translate(139.530223, 72.307)"><g><path d="M 23.5 0.59375 C 21.6875 0.59375 20.125 0.296875 18.8125 -0.296875 C 17.5 -0.898438 16.410156 -1.671875 15.546875 -2.609375 C 14.679688 -3.546875 14.003906 -4.519531 13.515625 -5.53125 L 13.140625 -5.53125 L 13.140625 0 L 3.890625 0 L 3.890625 -47.078125 L 13.296875 -47.078125 L 13.296875 -29.21875 L 13.546875 -29.21875 C 14.054688 -30.226562 14.734375 -31.203125 15.578125 -32.140625 C 16.421875 -33.078125 17.492188 -33.851562 18.796875 -34.46875 C 20.097656 -35.082031 21.6875 -35.390625 23.5625 -35.390625 C 26.238281 -35.390625 28.65625 -34.695312 30.8125 -33.3125 C 32.976562 -31.9375 34.703125 -29.914062 35.984375 -27.25 C 37.265625 -24.582031 37.90625 -21.300781 37.90625 -17.40625 C 37.90625 -13.570312 37.28125 -10.316406 36.03125 -7.640625 C 34.78125 -4.972656 33.066406 -2.929688 30.890625 -1.515625 C 28.722656 -0.109375 26.257812 0.59375 23.5 0.59375 Z M 20.6875 -6.984375 C 22.332031 -6.984375 23.710938 -7.421875 24.828125 -8.296875 C 25.941406 -9.171875 26.789062 -10.390625 27.375 -11.953125 C 27.957031 -13.523438 28.25 -15.351562 28.25 -17.4375 C 28.25 -19.5 27.957031 -21.3125 27.375 -22.875 C 26.789062 -24.4375 25.941406 -25.644531 24.828125 -26.5 C 23.710938 -27.363281 22.332031 -27.796875 20.6875 -27.796875 C 19.09375 -27.796875 17.71875 -27.367188 16.5625 -26.515625 C 15.414062 -25.671875 14.539062 -24.472656 13.9375 -22.921875 C 13.34375 -21.367188 13.046875 -19.539062 13.046875 -17.4375 C 13.046875 -15.332031 13.347656 -13.5 13.953125 -11.9375 C 14.566406 -10.382812 15.445312 -9.171875 16.59375 -8.296875 C 17.75 -7.421875 19.113281 -6.984375 20.6875 -6.984375 Z M 20.6875 -6.984375 "/></g></g></g><g fill="#ffffff" fill-opacity="1"><g transform="translate(179.842052, 72.307)"><g><path d="M 19.6875 0.6875 C 16.125 0.6875 13.050781 -0.046875 10.46875 -1.515625 C 7.894531 -2.992188 5.90625 -5.078125 4.5 -7.765625 C 3.101562 -10.460938 2.40625 -13.632812 2.40625 -17.28125 C 2.40625 -20.882812 3.097656 -24.035156 4.484375 -26.734375 C 5.878906 -29.441406 7.835938 -31.5625 10.359375 -33.09375 C 12.890625 -34.625 15.847656 -35.390625 19.234375 -35.390625 C 21.578125 -35.390625 23.75 -35.007812 25.75 -34.25 C 27.75 -33.488281 29.5 -32.363281 31 -30.875 C 32.507812 -29.394531 33.679688 -27.539062 34.515625 -25.3125 C 35.347656 -23.09375 35.765625 -20.53125 35.765625 -17.625 L 35.765625 -15 L 6.15625 -15 L 6.15625 -20.953125 L 31.1875 -20.953125 L 26.796875 -19.390625 C 26.796875 -21.203125 26.507812 -22.769531 25.9375 -24.09375 C 25.363281 -25.425781 24.523438 -26.457031 23.421875 -27.1875 C 22.316406 -27.914062 20.953125 -28.28125 19.328125 -28.28125 C 17.710938 -28.28125 16.332031 -27.910156 15.1875 -27.171875 C 14.050781 -26.429688 13.179688 -25.414062 12.578125 -24.125 C 11.984375 -22.84375 11.6875 -21.375 11.6875 -19.71875 L 11.6875 -15.546875 C 11.6875 -13.585938 12.023438 -11.921875 12.703125 -10.546875 C 13.378906 -9.179688 14.332031 -8.144531 15.5625 -7.4375 C 16.789062 -6.726562 18.226562 -6.375 19.875 -6.375 C 20.988281 -6.375 22.003906 -6.535156 22.921875 -6.859375 C 23.835938 -7.191406 24.613281 -7.664062 25.25 -8.28125 C 25.894531 -8.90625 26.390625 -9.671875 26.734375 -10.578125 L 35.296875 -9.359375 C 34.742188 -7.328125 33.753906 -5.554688 32.328125 -4.046875 C 30.910156 -2.546875 29.132812 -1.378906 27 -0.546875 C 24.863281 0.273438 22.425781 0.6875 19.6875 0.6875 Z M 19.6875 0.6875 "/></g></g></g><g fill="#ffffff" fill-opacity="1"><g transform="translate(217.879232, 72.307)"><g><path d="M 21.765625 -34.875 L 21.765625 -27.640625 L 0.59375 -27.640625 L 0.59375 -34.875 Z M 5.6875 -43.4375 L 15.109375 -43.4375 L 15.109375 -10.328125 C 15.109375 -9.210938 15.351562 -8.394531 15.84375 -7.875 C 16.34375 -7.363281 17.171875 -7.109375 18.328125 -7.109375 C 18.742188 -7.109375 19.285156 -7.144531 19.953125 -7.21875 C 20.617188 -7.289062 21.128906 -7.359375 21.484375 -7.421875 L 22.53125 -0.25 C 21.582031 -0.0195312 20.59375 0.140625 19.5625 0.234375 C 18.53125 0.328125 17.53125 0.375 16.5625 0.375 C 12.976562 0.375 10.269531 -0.445312 8.4375 -2.09375 C 6.601562 -3.75 5.6875 -6.171875 5.6875 -9.359375 Z M 5.6875 -43.4375 "/></g></g></g><g fill="#ffffff" fill-opacity="1"><g transform="translate(240.467695, 72.307)"><g><path d="M 21.765625 -34.875 L 21.765625 -27.640625 L 0.59375 -27.640625 L 0.59375 -34.875 Z M 5.6875 -43.4375 L 15.109375 -43.4375 L 15.109375 -10.328125 C 15.109375 -9.210938 15.351562 -8.394531 15.84375 -7.875 C 16.34375 -7.363281 17.171875 -7.109375 18.328125 -7.109375 C 18.742188 -7.109375 19.285156 -7.144531 19.953125 -7.21875 C 20.617188 -7.289062 21.128906 -7.359375 21.484375 -7.421875 L 22.53125 -0.25 C 21.582031 -0.0195312 20.59375 0.140625 19.5625 0.234375 C 18.53125 0.328125 17.53125 0.375 16.5625 0.375 C 12.976562 0.375 10.269531 -0.445312 8.4375 -2.09375 C 6.601562 -3.75 5.6875 -6.171875 5.6875 -9.359375 Z M 5.6875 -43.4375 "/></g></g></g><g fill="#ffffff" fill-opacity="1"><g transform="translate(263.593256, 72.307)"><g><path d="M 19.6875 0.6875 C 16.125 0.6875 13.050781 -0.046875 10.46875 -1.515625 C 7.894531 -2.992188 5.90625 -5.078125 4.5 -7.765625 C 3.101562 -10.460938 2.40625 -13.632812 2.40625 -17.28125 C 2.40625 -20.882812 3.097656 -24.035156 4.484375 -26.734375 C 5.878906 -29.441406 7.835938 -31.5625 10.359375 -33.09375 C 12.890625 -34.625 15.847656 -35.390625 19.234375 -35.390625 C 21.578125 -35.390625 23.75 -35.007812 25.75 -34.25 C 27.75 -33.488281 29.5 -32.363281 31 -30.875 C 32.507812 -29.394531 33.679688 -27.539062 34.515625 -25.3125 C 35.347656 -23.09375 35.765625 -20.53125 35.765625 -17.625 L 35.765625 -15 L 6.15625 -15 L 6.15625 -20.953125 L 31.1875 -20.953125 L 26.796875 -19.390625 C 26.796875 -21.203125 26.507812 -22.769531 25.9375 -24.09375 C 25.363281 -25.425781 24.523438 -26.457031 23.421875 -27.1875 C 22.316406 -27.914062 20.953125 -28.28125 19.328125 -28.28125 C 17.710938 -28.28125 16.332031 -27.910156 15.1875 -27.171875 C 14.050781 -26.429688 13.179688 -25.414062 12.578125 -24.125 C 11.984375 -22.84375 11.6875 -21.375 11.6875 -19.71875 L 11.6875 -15.546875 C 11.6875 -13.585938 12.023438 -11.921875 12.703125 -10.546875 C 13.378906 -9.179688 14.332031 -8.144531 15.5625 -7.4375 C 16.789062 -6.726562 18.226562 -6.375 19.875 -6.375 C 20.988281 -6.375 22.003906 -6.535156 22.921875 -6.859375 C 23.835938 -7.191406 24.613281 -7.664062 25.25 -8.28125 C 25.894531 -8.90625 26.390625 -9.671875 26.734375 -10.578125 L 35.296875 -9.359375 C 34.742188 -7.328125 33.753906 -5.554688 32.328125 -4.046875 C 30.910156 -2.546875 29.132812 -1.378906 27 -0.546875 C 24.863281 0.273438 22.425781 0.6875 19.6875 0.6875 Z M 19.6875 0.6875 "/></g></g></g><g fill="#ffffff" fill-opacity="1"><g transform="translate(301.630436, 72.307)"><g><path d="M 3.890625 0 L 3.890625 -34.875 L 13.015625 -34.875 L 13.015625 -28.84375 L 13.328125 -28.84375 C 13.960938 -30.96875 15.015625 -32.570312 16.484375 -33.65625 C 17.960938 -34.75 19.710938 -35.296875 21.734375 -35.296875 C 22.242188 -35.296875 22.769531 -35.269531 23.3125 -35.21875 C 23.863281 -35.175781 24.335938 -35.113281 24.734375 -35.03125 L 24.734375 -26.703125 C 24.335938 -26.828125 23.742188 -26.925781 22.953125 -27 C 22.160156 -27.070312 21.394531 -27.109375 20.65625 -27.109375 C 19.269531 -27.109375 18.015625 -26.800781 16.890625 -26.1875 C 15.765625 -25.582031 14.882812 -24.71875 14.25 -23.59375 C 13.613281 -22.476562 13.296875 -21.164062 13.296875 -19.65625 L 13.296875 0 Z M 3.890625 0 "/></g></g></g><g fill="#ffffff" fill-opacity="1"><g transform="translate(328.29443, 72.307)"><g><path d="M 4.078125 0 L 4.078125 -47.078125 L 18.765625 -47.078125 L 26.40625 -25.40625 C 26.726562 -24.394531 27.097656 -23.101562 27.515625 -21.53125 C 27.941406 -19.957031 28.367188 -18.273438 28.796875 -16.484375 C 29.222656 -14.703125 29.617188 -12.972656 29.984375 -11.296875 C 30.359375 -9.617188 30.675781 -8.171875 30.9375 -6.953125 L 28.90625 -6.953125 C 29.15625 -8.148438 29.460938 -9.582031 29.828125 -11.25 C 30.203125 -12.914062 30.601562 -14.644531 31.03125 -16.4375 C 31.46875 -18.238281 31.890625 -19.929688 32.296875 -21.515625 C 32.710938 -23.097656 33.085938 -24.394531 33.421875 -25.40625 L 40.9375 -47.078125 L 55.671875 -47.078125 L 55.671875 0 L 46 0 L 46 -22.234375 C 46 -23.273438 46.015625 -24.550781 46.046875 -26.0625 C 46.078125 -27.582031 46.117188 -29.210938 46.171875 -30.953125 C 46.222656 -32.703125 46.269531 -34.46875 46.3125 -36.25 C 46.351562 -38.03125 46.382812 -39.710938 46.40625 -41.296875 L 47.140625 -41.296875 C 46.710938 -39.566406 46.25 -37.785156 45.75 -35.953125 C 45.257812 -34.117188 44.765625 -32.332031 44.265625 -30.59375 C 43.773438 -28.851562 43.3125 -27.257812 42.875 -25.8125 C 42.445312 -24.375 42.078125 -23.179688 41.765625 -22.234375 L 33.9375 0 L 25.84375 0 L 17.90625 -22.234375 C 17.570312 -23.179688 17.1875 -24.367188 16.75 -25.796875 C 16.320312 -27.234375 15.851562 -28.816406 15.34375 -30.546875 C 14.84375 -32.273438 14.335938 -34.054688 13.828125 -35.890625 C 13.328125 -37.722656 12.847656 -39.523438 12.390625 -41.296875 L 13.265625 -41.296875 C 13.285156 -39.773438 13.316406 -38.128906 13.359375 -36.359375 C 13.398438 -34.585938 13.441406 -32.816406 13.484375 -31.046875 C 13.523438 -29.285156 13.566406 -27.640625 13.609375 -26.109375 C 13.660156 -24.585938 13.6875 -23.296875 13.6875 -22.234375 L 13.6875 0 Z M 4.078125 0 "/></g></g></g><g fill="#ffffff" fill-opacity="1"><g transform="translate(388.035556, 72.307)"><g><path d="M 21.609375 -16.171875 L 29.859375 -16.171875 L 34.21875 -10.578125 L 38.09375 -6.03125 L 46 3.921875 L 37.03125 3.921875 L 31.6875 -2.78125 L 28.96875 -6.515625 Z M 24.765625 0.65625 C 20.597656 0.65625 16.847656 -0.300781 13.515625 -2.21875 C 10.191406 -4.132812 7.566406 -6.890625 5.640625 -10.484375 C 3.710938 -14.085938 2.75 -18.425781 2.75 -23.5 C 2.75 -28.601562 3.710938 -32.957031 5.640625 -36.5625 C 7.566406 -40.175781 10.191406 -42.941406 13.515625 -44.859375 C 16.847656 -46.773438 20.597656 -47.734375 24.765625 -47.734375 C 28.941406 -47.734375 32.6875 -46.773438 36 -44.859375 C 39.3125 -42.941406 41.929688 -40.175781 43.859375 -36.5625 C 45.796875 -32.957031 46.765625 -28.601562 46.765625 -23.5 C 46.765625 -18.425781 45.796875 -14.082031 43.859375 -10.46875 C 41.929688 -6.863281 39.3125 -4.109375 36 -2.203125 C 32.6875 -0.296875 28.941406 0.65625 24.765625 0.65625 Z M 24.765625 -7.890625 C 27.210938 -7.890625 29.351562 -8.488281 31.1875 -9.6875 C 33.019531 -10.894531 34.445312 -12.660156 35.46875 -14.984375 C 36.488281 -17.316406 37 -20.15625 37 -23.5 C 37 -26.875 36.488281 -29.726562 35.46875 -32.0625 C 34.445312 -34.40625 33.019531 -36.175781 31.1875 -37.375 C 29.351562 -38.570312 27.210938 -39.171875 24.765625 -39.171875 C 22.347656 -39.171875 20.21875 -38.566406 18.375 -37.359375 C 16.53125 -36.148438 15.097656 -34.378906 14.078125 -32.046875 C 13.054688 -29.722656 12.546875 -26.875 12.546875 -23.5 C 12.546875 -20.15625 13.054688 -17.320312 14.078125 -15 C 15.097656 -12.6875 16.53125 -10.921875 18.375 -9.703125 C 20.21875 -8.492188 22.347656 -7.890625 24.765625 -7.890625 Z M 24.765625 -7.890625 "/></g></g></g></svg>